<mxfile host="app.diagrams.net" agent="Mozilla/5.0 (Windows NT 10.0; Win64; x64) AppleWebKit/537.36 (KHTML, like Gecko) Chrome/128.0.0.0 Safari/537.36" version="24.7.15">
  <diagram name="Page-1" id="twDvhtgVF-Ve9I6iekdA">
    <mxGraphModel dx="2120" dy="1155" grid="0" gridSize="10" guides="1" tooltips="1" connect="1" arrows="1" fold="1" page="0" pageScale="1" pageWidth="850" pageHeight="1100" math="0" shadow="0">
      <root>
        <mxCell id="0" />
        <mxCell id="1" parent="0" />
        <mxCell id="4P_DZhee5pJh1wVSsmIm-3" value="" style="shape=folder;fontStyle=1;spacingTop=10;tabWidth=40;tabHeight=14;tabPosition=left;html=1;whiteSpace=wrap;" parent="1" vertex="1">
          <mxGeometry x="-3" y="-70" width="450" height="839" as="geometry" />
        </mxCell>
        <mxCell id="THxBq8Z5EoYOMyfSU2FK-1" value="System Administrator&lt;div&gt;&lt;br&gt;&lt;/div&gt;" style="shape=umlActor;verticalLabelPosition=bottom;verticalAlign=top;html=1;outlineConnect=0;" vertex="1" parent="1">
          <mxGeometry x="-168" y="173" width="30" height="60" as="geometry" />
        </mxCell>
        <mxCell id="THxBq8Z5EoYOMyfSU2FK-2" value="updateSoftware" style="ellipse;whiteSpace=wrap;html=1;" vertex="1" parent="1">
          <mxGeometry x="87" y="-34" width="120" height="80" as="geometry" />
        </mxCell>
        <mxCell id="THxBq8Z5EoYOMyfSU2FK-3" value="checkERLoad" style="ellipse;whiteSpace=wrap;html=1;" vertex="1" parent="1">
          <mxGeometry x="207" y="46" width="120" height="80" as="geometry" />
        </mxCell>
        <mxCell id="THxBq8Z5EoYOMyfSU2FK-4" value="maintainSoftware" style="ellipse;whiteSpace=wrap;html=1;" vertex="1" parent="1">
          <mxGeometry x="69" y="86" width="120" height="80" as="geometry" />
        </mxCell>
        <mxCell id="THxBq8Z5EoYOMyfSU2FK-5" value="manageUserAccounts" style="ellipse;whiteSpace=wrap;html=1;" vertex="1" parent="1">
          <mxGeometry x="83" y="568" width="120" height="80" as="geometry" />
        </mxCell>
        <mxCell id="THxBq8Z5EoYOMyfSU2FK-6" value="addAccount" style="ellipse;whiteSpace=wrap;html=1;" vertex="1" parent="1">
          <mxGeometry x="236" y="672" width="120" height="80" as="geometry" />
        </mxCell>
        <mxCell id="THxBq8Z5EoYOMyfSU2FK-7" value="updateAccount" style="ellipse;whiteSpace=wrap;html=1;" vertex="1" parent="1">
          <mxGeometry x="256" y="552" width="120" height="80" as="geometry" />
        </mxCell>
        <mxCell id="THxBq8Z5EoYOMyfSU2FK-8" value="deleteAccount" style="ellipse;whiteSpace=wrap;html=1;" vertex="1" parent="1">
          <mxGeometry x="64" y="684" width="120" height="80" as="geometry" />
        </mxCell>
        <mxCell id="THxBq8Z5EoYOMyfSU2FK-9" value="checkDiagnostics" style="ellipse;whiteSpace=wrap;html=1;" vertex="1" parent="1">
          <mxGeometry x="207" y="137" width="120" height="80" as="geometry" />
        </mxCell>
        <mxCell id="THxBq8Z5EoYOMyfSU2FK-10" value="configureNotifications" style="ellipse;whiteSpace=wrap;html=1;" vertex="1" parent="1">
          <mxGeometry x="125" y="266" width="120" height="80" as="geometry" />
        </mxCell>
      </root>
    </mxGraphModel>
  </diagram>
</mxfile>
